<?xml version="1.0" encoding="utf-8"?>
<!-- Generator: Adobe Illustrator 18.1.0, SVG Export Plug-In . SVG Version: 6.00 Build 0)  -->
<svg version="1.1" id="Camada_1" xmlns="http://www.w3.org/2000/svg" xmlns:xlink="http://www.w3.org/1999/xlink" x="0px" y="0px"
	 viewBox="0 0 688 204" enable-background="new 0 0 688 204" xml:space="preserve">
<g>
	<g>
		<g>
			<g>
				<g>
					<path fill="#898888" d="M574.1,146.1c-5.5,2-6.7,3.5-6.7,3.5l9,3.3l7.3,7.3c0,0,1.2-2.9,0.8-6.5c-0.6-3.3,0.6-4.5,2.9-7.3
						l46.5-56.7c1.8-2.2,4.9-4.7,7.1-5.5l-4.7-3.7l-4.7-3.7c-0.4,2.6-2.2,5.7-3.9,7.9l-46.7,56.9
						C578.6,143.9,577.4,145.1,574.1,146.1z"/>
					<path fill="#898888" d="M628.2,86.8c0.6-0.8,1.8-1,2.7-0.2l0,0c0.8,0.6,1,1.8,0.2,2.7l-43.4,52.8c-0.6,0.8-1.8,1-2.7,0.2l0,0
						c-0.8-0.6-1-1.8-0.2-2.7L628.2,86.8z"/>
					<path fill="#898888" d="M565.4,163.3l4.3-9c0,0,1.4-1,5.3,1.6c3.9,2.4,3.7,4.3,3.7,4.3l-3.7,8.4c0,0,5.7-2.4,8-7.3
						c2.6-5.1,0.4-9.2-4.7-12.6c-5.3-3.1-10.8-0.4-12.6,2.7C564.3,154.9,564.5,158.4,565.4,163.3z"/>
					<path fill="#898888" d="M634.3,82.5c3.5,2.9,8.6,2.4,11.6-1.2s2.4-8.6-1.2-11.6c-3.5-2.9-8.6-2.4-11.6,1.2
						C630.2,74.6,631,79.7,634.3,82.5z M640.2,71.1l4.3,3.5l-1,5.3l-5.1,2l-4.3-3.5l1-5.3L640.2,71.1z"/>
				</g>
			</g>
		</g>
		<g>
			<g>
				<circle fill="#EBCB87" cx="641.6" cy="73.6" r="1.2"/>
			</g>
		</g>
	</g>
	<g>
		<g>
			<g>
				<path fill="#898888" d="M565.2,76.8c-1.2,1.8-5.5,8.4-6.3,9.4c-0.6,0.8,1,3.1-1.6,7.3c-2,2.7-4.3,3.1-4.3,3.1l6.7,6.3
					c0,0,0.4-2.2,2.2-5.1c1.2-1.8,2.2-2.6,3.1-2.6l5.5,5.1c0.8,0.8,2.2,0.8,2.7-0.2l4.5-6.9c0.6-1,0.4-2.4-0.4-3.1
					c0,0-6.1-5.9-6.3-6.1c-0.4-1.2-0.4-2.9,1.2-5.1c3.3-4.9,9.8-3.9,11.2-2.7l0.8-1.2C575.3,66.4,566.4,75,565.2,76.8z"/>
				<polygon fill="#676767" points="572.7,98.8 576.6,92.9 600.2,115.2 596.3,121.3 				"/>
				<path fill="#E72F70" d="M641.6,150.4c0.8,0.8,1,2.2,0.4,3.1l-5.1,7.7c-0.6,1-1.8,1.2-2.7,0.2l-38.9-37.9c-0.8-0.8-1-2.2-0.4-3.1
					l4.5-6.7c0.6-1,1.8-1.2,2.7-0.2L641.6,150.4z"/>
				<path fill="#898888" d="M562.1,97.8c1.2-1.8,2.2-2.6,3.1-2.6l5.5,5.1c0.8,0.8,2.2,0.8,2.7-0.2l4.5-6.9c0.6-1,0.4-2.4-0.4-3.1
					c0,0-6.1-5.9-6.3-6.1c-0.4-1.2-0.4-2.9,1.2-5.1c3.3-4.9,9.8-3.9,11.2-2.7l0.4-0.6c-2-1.6-8.2-5.5-15.1,4.9c0,0,1,5.3-2.2,10
					c-3.1,4.7-5.7,3.5-9.6,9.6l2.9,2.7C559.8,102.7,560,100.7,562.1,97.8z"/>
				<path fill="#898888" d="M560.5,101.3c0.8,0.8,1,2.2,0.4,3.1L558,109c-0.6,1-1.8,1.2-2.7,0.2l-5.7-5.3c-0.8-0.8-1-2.2-0.4-3.1
					l2.9-4.5c0.6-1,1.8-1.2,2.7-0.2L560.5,101.3z"/>
				<path fill="#898888" d="M552.1,106.4l3.1,2.9c0.8,0.8,2.2,0.8,2.7-0.2l2.9-4.5c0.6-1,0.4-2.4-0.4-3.1l-3.3-3.1
					C555.6,102.5,553.9,105.2,552.1,106.4z"/>
				<polygon fill="#E72F70" points="595.5,119.2 598.2,115 640.6,155.1 637.7,159.4 				"/>
			</g>
		</g>
	</g>
</g>
<rect x="15.5" y="98.2" fill="none" width="535" height="48.3"/>
<text transform="matrix(1 0 0 1 15.5263 140.3744)" fill="#E72F70" font-family="'ScriptMTBold'" font-size="60.6432">Mina na Marcenaria</text>
</svg>
