<?xml version="1.0" encoding="utf-8"?>
<!-- Generator: Adobe Illustrator 17.1.0, SVG Export Plug-In . SVG Version: 6.00 Build 0)  -->
<!DOCTYPE svg PUBLIC "-//W3C//DTD SVG 1.1//EN" "http://www.w3.org/Graphics/SVG/1.1/DTD/svg11.dtd">
<svg version="1.1" id="Camada_1" xmlns="http://www.w3.org/2000/svg" xmlns:xlink="http://www.w3.org/1999/xlink" x="0px" y="0px"
	 viewBox="0 0 216.9 63.7" enable-background="new 0 0 216.9 63.7" xml:space="preserve">
<g>
	<g>
		<path fill="#F2C18B" d="M216.9,59.3c0,2.5-1.4,4.5-3.2,4.5H3.2c-1.7,0-3.2-2-3.2-4.5V4.5C0,2,1.4,0,3.2,0h210.6
			c1.7,0,3.2,2,3.2,4.5V59.3z"/>
		<path fill="#F2C18B" d="M214.8,32.9c-1.4,0-2.8,0.2-4.2,0.4c-3,0.8-5.9,1.8-8.9,2.6c-4.3,1.1-8.6,1.9-13,2.2
			c-6.9,0.5-13.8,0.4-20.6-0.4c-7.7-0.8-15.3-2.2-22.9-3.4c-4.7-0.7-9.4-1.3-14.1-2.1c-2.6-0.5-5.2-1.1-7.7-1.6
			c-1.4-0.2-2.9-0.2-4.3-0.1c-1.7,0.7-3.3,1.7-5,2.5c-3.2,1.5-6.6,2.2-10,2.3c-3.3,0-6.6-0.5-9.8-0.7c-3.3-0.2-6.6-0.3-9.9-0.3
			c-6.7,0-13.5,0.2-20.2-0.5c-6.6-0.6-13.1-1.9-19.6-3c-7.9-1.2-15.8-1.7-23.7-1.2C13.9,30,7,30.7,0,30.3v28.9
			c0,2.5,1.4,4.5,3.2,4.5h210.6c1.7,0,3.2-2,3.2-4.5V32.6C216.2,32.8,215.6,32.9,214.8,32.9z"/>
		<polygon fill="#E0B17E" points="83.5,12.2 69.1,16.6 69.1,18.9 80.3,18.9 89.9,18.9 100.1,18.9 108.9,15.6 98.3,12.2 		"/>
		<g>
			<defs>
				<path id="SVGID_1_" d="M216.9,59.3c0,2.5-1.4,4.5-3.2,4.5H3.2c-1.7,0-3.2-2-3.2-4.5V4.5C0,2,1.4,0,3.2,0h210.6
					c1.7,0,3.2,2,3.2,4.5V59.3z"/>
			</defs>
			<clipPath id="SVGID_2_">
				<use xlink:href="#SVGID_1_"  overflow="visible"/>
			</clipPath>
			<polygon clip-path="url(#SVGID_2_)" fill="#E0B17E" points="-6.8,5.9 13.5,8.2 26.6,8.2 43.8,8.2 61.4,8.2 81.4,5.9 101.5,5.9 
				117.9,7 133.5,12.5 151.2,12.5 169.1,10.8 204.6,9.2 216.6,7.2 227.4,9.2 216.6,11.1 203,12.5 184.4,12.5 170.1,12.5 154.1,14.8 
				137.1,14.8 127,12.8 112.6,10.3 98.8,8.2 85.4,8.2 71.7,9.2 66.4,10.3 49.2,13.1 34.7,10.3 22.7,10.3 10.6,10.3 0.2,8.2 			"/>
			<polygon clip-path="url(#SVGID_2_)" fill="#E0B17E" points="-13.2,13.5 7.6,17.3 29.4,19.5 42.7,19.8 60.9,26.8 84.1,27.4 
				103,25.7 118.1,24.5 137.9,20.4 150.7,20.7 172.7,21.9 188.4,24.1 212.8,28.3 235.3,30.9 250.1,31.3 246.5,29 231.5,26.9 
				211.1,21.8 194.3,21.1 177.7,20.3 165.6,19.7 144.4,18.6 133.5,17 129.6,19.2 108.4,22.2 91.5,21.8 78.4,23.3 69.2,23.1 
				56.3,22.4 49.2,18 40.3,17.1 32.4,16.9 18.1,14.3 9.1,14.1 -2.8,13.8 			"/>
			<polygon clip-path="url(#SVGID_2_)" fill="#E0B17E" points="-12,33 -2.3,30.2 15.1,30.7 35.3,33.3 47.7,33.7 65.6,36.3 94.1,35 
				147.4,38.6 162.1,39 176.5,37.3 200.3,40.1 216.3,38.4 219,39.4 229.1,42.9 241.1,43.3 250.7,41.5 269.1,42 280.6,44.4 293,44.7 
				319.2,41.3 290.2,41.5 276.5,39.8 248.9,37.3 236,41.4 207.9,36.1 200.4,39 183.7,35.4 166.6,34.9 159.8,36.5 147.4,37.5 
				134.7,34 122.3,33.7 101.8,33.1 88.6,32.7 75.8,32.4 65.2,33.9 55.1,31.8 47.7,31.6 39.9,31.4 27.1,31 15.6,28.6 1.8,28.2 
				-5.5,28 			"/>
			<polygon clip-path="url(#SVGID_2_)" fill="#E0B17E" points="-98.9,33 -89.4,36.7 -71.9,37.5 -51.7,36.5 -39.3,37.1 -21.3,36 
				7.1,39.5 60.5,40.1 75.1,40.9 89.5,43.7 113.4,42.8 129.2,45.7 132,45 142.2,42.2 154.1,42.8 163.7,45.4 182.1,46.4 193.6,44.9 
				206,45.5 232,51 203.1,48.5 189.3,49.1 161.7,49.5 149,44.4 120.7,47.4 113.3,43.9 96.6,46.2 79.4,45.3 72.8,43.2 60.4,41.2 
				47.6,43.7 35.1,43 14.7,42 1.5,41.3 -11.3,40.6 -21.8,38.3 -32,39.6 -39.3,39.2 -47.1,38.8 -60,38.2 -71.5,39.7 -85.3,39 
				-92.7,38.6 			"/>
			<polygon clip-path="url(#SVGID_2_)" fill="#E0B17E" points="-20.8,54.9 -11.2,52 6.3,52.6 26.5,55.3 38.9,55.6 56.8,58.3 
				85.3,57 138.6,60.7 153.2,61.2 167.7,59.5 191.5,62.3 207.4,60.7 210.2,61.7 220.3,65.3 232.2,65.6 241.9,63.8 260.2,64.4 
				271.7,66.8 284.1,67.2 310.3,63.8 281.4,64 267.6,62.2 240.1,59.6 227.2,63.7 199,58.4 191.5,61.3 174.9,57.7 157.7,57.1 
				151,58.7 138.6,59.7 125.8,56.2 113.4,55.8 93,55.2 79.8,54.8 66.9,54.4 56.3,55.9 46.3,53.8 38.9,53.5 31.1,53.3 18.2,52.9 
				6.8,50.5 -7,50.1 -14.3,49.9 			"/>
		</g>
		<path fill="#F8D29B" d="M213.8,0H3.2C1.4,0,0,2,0,4.5v1.3c0-2.5,1.4-4.5,3.2-4.5h210.6c1.7,0,3.2,2,3.2,4.5V4.5
			C216.9,2,215.5,0,213.8,0z"/>
		<path fill="#D8A669" d="M213.8,61.8H3.2c-1.7,0-3.2-2-3.2-4.5v1.9c0,2.5,1.4,4.5,3.2,4.5h210.6c1.7,0,3.2-2,3.2-4.5v-1.9
			C216.9,59.8,215.5,61.8,213.8,61.8z"/>
	</g>
	<g>
		<circle fill="#1D2225" cx="7.5" cy="9.1" r="3.3"/>
		<g>
			
				<linearGradient id="SVGID_3_" gradientUnits="userSpaceOnUse" x1="136.8087" y1="199.8668" x2="142.6375" y2="199.8668" gradientTransform="matrix(0.8456 0.5339 -0.5339 0.8456 -3.9766 -234.5383)">
				<stop  offset="0" style="stop-color:#E4E2DF"/>
				<stop  offset="0" style="stop-color:#DFDAD7"/>
				<stop  offset="6.584089e-002" style="stop-color:#CEC9C8"/>
				<stop  offset="0.1916" style="stop-color:#A49FA3"/>
				<stop  offset="0.264" style="stop-color:#8B878D"/>
				<stop  offset="0.5225" style="stop-color:#F3F4F3"/>
				<stop  offset="0.589" style="stop-color:#E2E1E2"/>
				<stop  offset="0.7167" style="stop-color:#B8B4B7"/>
				<stop  offset="0.8764" style="stop-color:#807C81"/>
				<stop  offset="1" style="stop-color:#D1D3D4"/>
				<stop  offset="1" style="stop-color:#A7A9AC"/>
			</linearGradient>
			<circle fill="url(#SVGID_3_)" cx="7.5" cy="9.1" r="2.9"/>
			<polygon fill="#1D2225" points="10.2,8 4.6,9.3 4.7,10 10.3,8.7 			"/>
		</g>
	</g>
	<g>
		<circle fill="#1D2225" cx="209.8" cy="9.6" r="3.3"/>
		<g>
			
				<linearGradient id="SVGID_4_" gradientUnits="userSpaceOnUse" x1="308.2038" y1="92.2954" x2="314.0326" y2="92.2954" gradientTransform="matrix(0.8456 0.5339 -0.5339 0.8456 -3.9766 -234.5383)">
				<stop  offset="0" style="stop-color:#E4E2DF"/>
				<stop  offset="0" style="stop-color:#DFDAD7"/>
				<stop  offset="6.584089e-002" style="stop-color:#CEC9C8"/>
				<stop  offset="0.1916" style="stop-color:#A49FA3"/>
				<stop  offset="0.264" style="stop-color:#8B878D"/>
				<stop  offset="0.5225" style="stop-color:#F3F4F3"/>
				<stop  offset="0.589" style="stop-color:#E2E1E2"/>
				<stop  offset="0.7167" style="stop-color:#B8B4B7"/>
				<stop  offset="0.8764" style="stop-color:#807C81"/>
				<stop  offset="1" style="stop-color:#D1D3D4"/>
				<stop  offset="1" style="stop-color:#A7A9AC"/>
			</linearGradient>
			<circle fill="url(#SVGID_4_)" cx="209.8" cy="9.6" r="2.9"/>
			<polygon fill="#1D2225" points="212.6,8.5 206.9,9.8 207.1,10.5 212.7,9.3 			"/>
		</g>
	</g>
	<g>
		<circle fill="#1D2225" cx="8" cy="56.5" r="3.3"/>
		<g>
			
				<linearGradient id="SVGID_5_" gradientUnits="userSpaceOnUse" x1="162.6037" y1="239.6997" x2="168.4324" y2="239.6997" gradientTransform="matrix(0.8456 0.5339 -0.5339 0.8456 -3.9766 -234.5383)">
				<stop  offset="0" style="stop-color:#E4E2DF"/>
				<stop  offset="0" style="stop-color:#DFDAD7"/>
				<stop  offset="6.584089e-002" style="stop-color:#CEC9C8"/>
				<stop  offset="0.1916" style="stop-color:#A49FA3"/>
				<stop  offset="0.264" style="stop-color:#8B878D"/>
				<stop  offset="0.5225" style="stop-color:#F3F4F3"/>
				<stop  offset="0.589" style="stop-color:#E2E1E2"/>
				<stop  offset="0.7167" style="stop-color:#B8B4B7"/>
				<stop  offset="0.8764" style="stop-color:#807C81"/>
				<stop  offset="1" style="stop-color:#D1D3D4"/>
				<stop  offset="1" style="stop-color:#A7A9AC"/>
			</linearGradient>
			<circle fill="url(#SVGID_5_)" cx="8" cy="56.5" r="2.9"/>
			<polygon fill="#1D2225" points="10.8,55.4 5.1,56.8 5.2,57.4 10.9,56.2 			"/>
		</g>
	</g>
	<g>
		<circle fill="#1D2225" cx="210.4" cy="56.5" r="3.3"/>
		<g>
			
				<linearGradient id="SVGID_6_" gradientUnits="userSpaceOnUse" x1="333.7076" y1="131.6671" x2="339.5363" y2="131.6671" gradientTransform="matrix(0.8456 0.5339 -0.5339 0.8456 -3.9766 -234.5383)">
				<stop  offset="0" style="stop-color:#E4E2DF"/>
				<stop  offset="0" style="stop-color:#DFDAD7"/>
				<stop  offset="6.584089e-002" style="stop-color:#CEC9C8"/>
				<stop  offset="0.1916" style="stop-color:#A49FA3"/>
				<stop  offset="0.264" style="stop-color:#8B878D"/>
				<stop  offset="0.5225" style="stop-color:#F3F4F3"/>
				<stop  offset="0.589" style="stop-color:#E2E1E2"/>
				<stop  offset="0.7167" style="stop-color:#B8B4B7"/>
				<stop  offset="0.8764" style="stop-color:#807C81"/>
				<stop  offset="1" style="stop-color:#D1D3D4"/>
				<stop  offset="1" style="stop-color:#A7A9AC"/>
			</linearGradient>
			<circle fill="url(#SVGID_6_)" cx="210.4" cy="56.5" r="2.9"/>
			<polygon fill="#1D2225" points="213.1,55.4 207.5,56.8 207.6,57.4 213.2,56.2 			"/>
		</g>
	</g>
</g>
<rect x="46.4" y="12.3" fill="none" width="129.3" height="41.6"/>
<text transform="matrix(1 0 0 1 46.4079 27.5152)"><tspan x="0" y="0" fill="#E72F70" font-family="'ScriptMTBold'" font-size="21.8182">Mina  na</tspan><tspan x="0" y="26.2" fill="#E72F70" font-family="'ScriptMTBold'" font-size="21.8182" letter-spacing="14">	</tspan><tspan x="19.6" y="26.2" fill="#E72F70" font-family="'ScriptMTBold'" font-size="21.8182">Marcenaria</tspan></text>
<g>
	<g>
		
			<image overflow="visible" opacity="0.24" width="183" height="292" xlink:href="8EF4715.png"  transform="matrix(0.24 0 0 0.24 13.5142 3.4503)">
		</image>
		<g>
			<g>
				<path fill="#898888" d="M39,11.5c-0.9,0-4.4,0-4.9,0c-0.4,0-0.7,1.1-2.8,1.1c-1.5,0-2.3-0.8-2.3-0.8v3.9c0,0,0.8-0.4,2.3-0.4
					c0.9,0,1.5,0.2,1.8,0.5V19c0,0.5,0.4,0.9,0.9,0.9h3.6c0.5,0,0.9-0.4,0.9-0.9c0,0,0-3.6,0-3.7c0.3-0.4,0.8-0.8,2-0.8
					c2.6,0,4.3,2.6,4.3,3.4h0.6C45.4,12.6,39.9,11.5,39,11.5z"/>
				<rect x="34.2" y="19.4" fill="#676767" width="3.1" height="13.9"/>
				<path fill="#E72F70" d="M38.7,56.5c0,0.5-0.4,0.9-0.9,0.9h-4c-0.5,0-0.9-0.4-0.9-0.9l0.3-23c0-0.5,0.4-0.9,0.9-0.9h3.5
					c0.5,0,0.9,0.4,0.9,0.9L38.7,56.5z"/>
				<path fill="#898888" d="M31.3,15.3c0.9,0,1.5,0.2,1.8,0.5V19c0,0.5,0.4,0.9,0.9,0.9h3.6c0.5,0,0.9-0.4,0.9-0.9c0,0,0-3.6,0-3.7
					c0.3-0.4,0.8-0.8,2-0.8c2.6,0,4.3,2.6,4.3,3.4h0.3c-0.1-1.1-0.7-4.3-6.2-4.3c0,0-1.4,1.6-3.9,1.6S32.1,14,29,14v1.7
					C29,15.7,29.7,15.3,31.3,15.3z"/>
				<path fill="#898888" d="M29.7,15.6c0,0.5-0.4,0.9-0.9,0.9h-2.4c-0.5,0-0.9-0.4-0.9-0.9v-3.3c0-0.5,0.4-0.9,0.9-0.9h2.4
					c0.5,0,0.9,0.4,0.9,0.9V15.6z"/>
				<path fill="#898888" d="M25.5,13.8v1.8c0,0.5,0.4,0.9,0.9,0.9h2.4c0.5,0,0.9-0.4,0.9-0.9v-2C27.8,14.1,26.4,14.1,25.5,13.8z"/>
				<rect x="34.6" y="32.5" fill="#E72F70" width="2.2" height="24.8"/>
			</g>
		</g>
	</g>
	<g>
		<g>
			
				<image overflow="visible" opacity="0.24" width="135" height="313" xlink:href="8EF4717.png"  transform="matrix(0.24 0 0 0.24 166.4923 -1.112)">
			</image>
			<g>
				<g>
					<path fill="#898888" d="M179.7,50.1c-1.2,2.1-1.2,2.9-1.2,2.9l3.8-1.3l4.3,0.4c0,0-0.4-1.3-1.5-2.3c-1.1-0.9-1-1.6-1-3.1V16.1
						c0-1.2,0.3-2.8,0.8-3.6h-2.5h-2.5c0.5,0.9,0.8,2.4,0.8,3.6v30.7C180.6,48.2,180.5,48.8,179.7,50.1z"/>
					<path fill="#898888" d="M181.5,16.6c0-0.4,0.3-0.8,0.8-0.8l0,0c0.4,0,0.8,0.3,0.8,0.8v28.5c0,0.4-0.3,0.8-0.8,0.8l0,0
						c-0.4,0-0.8-0.3-0.8-0.8V16.6z"/>
					<path fill="#898888" d="M181.5,57.9l-1-4.1c0,0,0.2-0.7,2.1-0.9c1.9-0.3,2.3,0.4,2.3,0.4l1,3.7c0,0,1.2-2.3,0.7-4.5
						c-0.5-2.3-2.3-3.1-4.8-2.8c-2.5,0.4-3.6,2.7-3.3,4.2C178.9,55.5,179.9,56.6,181.5,57.9z"/>
					<path fill="#898888" d="M182.3,13.6c1.9,0,3.4-1.5,3.4-3.4s-1.5-3.4-3.4-3.4c-1.9,0-3.4,1.5-3.4,3.4S180.5,13.6,182.3,13.6z
						 M181.2,8.3h2.3l1.1,2l-1.1,2h-2.3l-1.1-2L181.2,8.3z"/>
				</g>
			</g>
		</g>
		<g>
			
				<image overflow="visible" opacity="0.24" width="105" height="105" xlink:href="8EF4712.png"  transform="matrix(0.24 0 0 0.24 169.8109 0.2841)">
			</image>
			<g>
				<circle fill="#EBCB87" cx="182.3" cy="8.8" r="0.5"/>
			</g>
		</g>
	</g>
</g>
</svg>
