<?xml version="1.0" encoding="utf-8"?>
<!-- Generator: Adobe Illustrator 18.1.0, SVG Export Plug-In . SVG Version: 6.00 Build 0)  -->
<svg version="1.1" id="Camada_1" xmlns="http://www.w3.org/2000/svg" xmlns:xlink="http://www.w3.org/1999/xlink" x="0px" y="0px"
	 viewBox="0 230 451.7 40" enable-background="new 0 230 451.7 40" xml:space="preserve">
<g>
	<g>
		<g>
			<g>
				<g>
					<g>
						<path fill="#FFFFFF" d="M11.8,258.8c-1.9,0.7-2.4,1.3-2.4,1.3l3.2,1.2l2.6,2.6c0,0,0.4-1.1,0.3-2.3c-0.2-1.2,0.2-1.6,1.1-2.6
							L33,238.8c0.6-0.8,1.7-1.7,2.5-1.9l-1.7-1.3l-1.7-1.3c-0.2,0.9-0.8,2-1.4,2.8l-16.6,20.2C13.4,258,13,258.4,11.8,258.8z"/>
						<path fill="#FFFFFF" d="M31,237.7c0.2-0.3,0.6-0.4,0.9-0.1l0,0c0.3,0.2,0.4,0.6,0.1,0.9l-15.4,18.8c-0.2,0.3-0.6,0.4-0.9,0.1
							l0,0c-0.3-0.2-0.4-0.6-0.1-0.9L31,237.7z"/>
						<path fill="#FFFFFF" d="M8.7,264.9l1.5-3.2c0,0,0.5-0.4,1.9,0.6c1.4,0.8,1.3,1.5,1.3,1.5l-1.3,3c0,0,2-0.8,2.8-2.6
							c0.9-1.8,0.2-3.3-1.7-4.5c-1.9-1.1-3.8-0.2-4.5,0.9C8.3,261.9,8.4,263.1,8.7,264.9z"/>
						<path fill="#FFFFFF" d="M33.1,236.2c1.3,1.1,3.1,0.8,4.1-0.4c1.1-1.3,0.8-3.1-0.4-4.1c-1.3-1.1-3.1-0.8-4.1,0.4
							C31.7,233.4,32,235.2,33.1,236.2z M35.2,232.1l1.5,1.3l-0.4,1.9l-1.8,0.7l-1.5-1.3l0.4-1.9L35.2,232.1z"/>
					</g>
				</g>
			</g>
		</g>
		<g>
			<g>
				<g>
					<path fill="#FFFFFF" d="M8.6,234.2c-0.4,0.6-1.9,3-2.2,3.3c-0.2,0.3,0.4,1.1-0.6,2.6c-0.7,0.9-1.5,1.1-1.5,1.1l2.4,2.2
						c0,0,0.2-0.8,0.8-1.8c0.4-0.6,0.8-0.9,1.1-0.9l1.9,1.8c0.3,0.3,0.8,0.3,0.9-0.1l1.6-2.4c0.2-0.4,0.2-0.8-0.2-1.1
						c0,0-2.2-2.1-2.2-2.2c-0.2-0.4-0.2-1.1,0.4-1.8c1.2-1.7,3.5-1.4,4-0.9l0.3-0.4C12.2,230.5,9.1,233.6,8.6,234.2z"/>
					<polygon fill="#FFFFFF" points="11.3,242 12.7,239.9 21.1,247.9 19.7,250 					"/>
					<path fill="#FFFFFF" d="M35.7,260.3c0.3,0.3,0.4,0.8,0.2,1.1l-1.8,2.7c-0.2,0.4-0.6,0.4-0.9,0.1l-13.8-13.4
						c-0.3-0.3-0.4-0.8-0.2-1.1l1.6-2.4c0.2-0.4,0.6-0.4,0.9-0.1L35.7,260.3z"/>
					<path fill="#FFFFFF" d="M7.5,241.6c0.4-0.6,0.8-0.9,1.1-0.9l1.9,1.8c0.3,0.3,0.8,0.3,0.9-0.1l1.6-2.4c0.2-0.4,0.2-0.8-0.2-1.1
						c0,0-2.2-2.1-2.2-2.2c-0.2-0.4-0.2-1.1,0.4-1.8c1.2-1.7,3.5-1.4,4-0.9l0.2-0.2c-0.7-0.6-2.9-1.9-5.4,1.7c0,0,0.4,1.9-0.8,3.5
						c-1.1,1.7-2,1.3-3.4,3.4l1.1,0.9C6.7,243.4,6.7,242.7,7.5,241.6z"/>
					<path fill="#FFFFFF" d="M7,242.9c0.3,0.3,0.4,0.8,0.2,1.1l-1.1,1.6c-0.2,0.4-0.6,0.4-0.9,0.1l-2-1.9c-0.3-0.3-0.4-0.8-0.2-1.1
						l1.1-1.6c0.2-0.4,0.6-0.4,0.9-0.1L7,242.9z"/>
					<path fill="#FFFFFF" d="M4,244.7l1.1,1.1c0.3,0.3,0.8,0.3,0.9-0.1l1.1-1.6c0.2-0.4,0.2-0.8-0.2-1.1l-1.2-1.1
						C5.2,243.3,4.6,244.3,4,244.7z"/>
					<polygon fill="#FFFFFF" points="19.4,249.2 20.3,247.7 35.4,262 34.4,263.5 					"/>
				</g>
			</g>
		</g>
		<g>
			<g>
				<ellipse fill="#FFFFFF" cx="23.8" cy="268.6" rx="9.1" ry="0.5"/>
			</g>
		</g>
	</g>
	<g enable-background="new    ">
		<path fill="#FFFFFF" d="M103.9,259.5c-3.3,3.6-6.3,5.3-9,5.3c-1.6,0-2.9-0.8-3.8-2.4s-1.3-3.7-1.3-6.4c0-2.1,0.4-4.9,1.3-8.5
			c0.8-3.6,1.9-6.6,3.3-9.1l1.3-2.3c-1.8,1.8-3.2,3.8-4.3,6c-1.1,2.2-2.4,5.2-4,9.2c-1.6,3.9-2.8,6.6-3.5,8
			c-0.8,1.4-1.6,2.6-2.3,3.4c-0.8,0.9-1.4,1.5-1.9,1.8c-0.6,0.3-1.6,0.4-2.9,0.4c-0.6,0-0.8-0.1-0.8-0.4c0,0,0.1-0.5,0.3-1.4
			c0.2-0.9,0.4-2.3,0.6-4.3c0.2-2,0.3-5.4,0.4-10.1c0.1-4.8,0.8-8.8,2.1-12.2c-1.4,1.6-2.8,5.3-4.3,11l-0.4,2.1
			c-1.5,6-3.3,10.1-5.2,12.2c-1.9,2.1-3.9,3.1-5.8,3.1c-1.1,0-2.2-0.4-3.1-1.1c-0.9-0.8-1.3-1.6-1.3-2.5c0-0.8,0.6-1.6,1.6-2.5
			c1.1-0.9,1.7-1.4,2-1.4s0.6,0.1,0.6,0.3c0.1,0.3,0.3,0.8,0.4,1.8c0.2,1,0.4,1.6,0.8,1.9c0.3,0.3,0.8,0.4,1.3,0.4
			c1.1,0,2.4-1.1,3.8-3.4c1.4-2.3,2.6-5.8,3.8-10.5l0.6-2.7c0.5-2.2,1-3.9,1.5-5.2c0.5-1.3,1.1-2.6,2-3.9c1.2-1.9,1.9-2.9,2.2-2.9
			c0.3-0.1,0.8-0.3,1.5-0.3c0.8-0.1,1.5-0.1,2.3-0.1c0.3,0,0.4,0.2,0.4,0.5c0,0.2-0.1,0.5-0.1,1c-0.3,2.1-0.4,4.1-0.4,6.2l0.1,6
			c0,5.1-0.4,9.3-1.3,12.5c0.8-0.9,1.9-3.4,3.4-7.3c2.1-5.6,4.1-9.7,5.9-12.5c0.8-1.4,1.8-2.6,3.1-3.9c1.2-1.3,2-1.9,2.4-1.9
			c1.6-0.3,2.9-0.4,3.9-0.4c0.4,0,0.6,0.1,0.6,0.3c0,0.3-0.3,1-0.8,2.1c-1.1,2.6-2.2,6.1-3.2,10.5c-1,4.5-1.5,8-1.5,10.6
			c0,2.9,0.9,4.5,2.8,4.5c1.5,0,3.2-1.3,5.3-3.8L103.9,259.5L103.9,259.5z"/>
		<path fill="#FFFFFF" d="M114.8,259.5c-3.4,3.6-6,5.5-7.8,5.5c-0.9,0-1.8-0.5-2.4-1.4c-0.6-0.9-1-2.2-1-3.6c0-3.1,1.1-7.5,3.2-13
			l5.6-1.2h0.3l-2.2,6.9c-0.9,2.9-1.4,4.9-1.4,6.1c0,0.5,0.1,0.9,0.3,1.2c0.3,0.3,0.5,0.4,0.8,0.4c0.6,0,1.1-0.3,1.8-0.6
			c0.6-0.4,1.5-1.3,2.8-2.8L114.8,259.5L114.8,259.5z M114.3,236.9c0,3.6-1.3,5.3-3.9,5.3c-1.3,0-2.4-0.4-3.3-1.1
			c0.9-1.3,1.5-2.8,2-4.4c1.1,0.7,2.1,1.1,2.8,1.1C112.8,237.8,113.6,237.5,114.3,236.9z"/>
		<path fill="#FFFFFF" d="M136.5,259.5c-3.4,3.6-6.3,5.4-8.8,5.4c-1,0-1.8-0.3-2.4-1c-0.6-0.7-0.9-1.6-0.9-2.8c0-1.6,0.6-4,1.9-7.2
			c0.7-1.8,1-2.9,1-3.3s-0.2-0.7-0.6-0.7c-0.2,0-0.4,0.1-0.8,0.3c-0.3,0.2-0.7,0.5-1.1,0.9c-0.4,0.3-0.8,0.8-1.3,1.3
			c-0.4,0.4-0.8,0.9-1.3,1.4l-1.3,1.4c-0.6,0.7-0.9,1.4-1,2.1c-0.3,1.3-0.4,2.4-0.4,3.4c-0.1,0.8-0.1,1.8-0.1,3.2l-4.9,1.1
			c-0.2-2-0.3-3.4-0.3-4.5c0-2.4,0.3-4.6,0.8-6.8c0.6-2.1,1.4-4.5,2.6-7.1l5.4-1c-1.1,3.1-1.9,5.5-2.3,7.2c2.4-2.7,4.3-4.6,5.8-5.6
			c1.4-1,2.7-1.6,3.8-1.6c0.8,0,1.4,0.3,1.9,0.9c0.5,0.6,0.8,1.3,0.8,2.1c0,1.4-0.6,3.8-1.9,7c-0.9,2.2-1.3,3.6-1.3,4.3
			c0,0.9,0.4,1.3,1.1,1.3c1.1,0,2.8-1.4,5.3-4.3L136.5,259.5L136.5,259.5z"/>
		<path fill="#FFFFFF" d="M160.1,259.5c-2.4,2.3-4.1,3.7-5.1,4.4c-1,0.7-2,1-2.9,1c-2.3,0-3.4-2.1-3.3-6.2c-1.5,2.1-2.8,3.6-4.1,4.7
			c-1.3,1-2.5,1.5-3.9,1.5c-1.3,0-2.4-0.6-3.3-1.8s-1.4-2.7-1.4-4.5c0-2.2,0.6-4.3,1.8-6.3s2.8-3.6,4.7-4.9c1.9-1.3,3.6-1.9,5-1.9
			c1.8,0,3.1,0.8,3.9,2.5l4.5-2.5h1.3l-1.9,6.5c-1,3.3-1.5,5.5-1.5,6.7c0,1.3,0.4,1.9,1.4,1.9c0.6,0,1.2-0.3,1.9-0.9
			c0.7-0.6,1.7-1.6,2.9-2.8L160.1,259.5L160.1,259.5z M143.9,260.7c1.5,0,2.9-1.3,4.1-3.8c1.3-2.5,1.9-4.8,1.9-7
			c0-0.8-0.2-1.5-0.6-1.9c-0.4-0.4-0.9-0.7-1.5-0.7c-1.5,0-2.9,1.3-4.2,3.8c-1.3,2.5-1.9,4.8-1.9,6.9c0,0.8,0.2,1.4,0.6,1.9
			C142.8,260.5,143.3,260.7,143.9,260.7z"/>
		<path fill="#FFFFFF" d="M193.1,259.5c-3.4,3.6-6.3,5.4-8.8,5.4c-1,0-1.8-0.3-2.4-1c-0.6-0.7-0.9-1.6-0.9-2.8c0-1.6,0.6-4,1.9-7.2
			c0.7-1.8,1-2.9,1-3.3s-0.2-0.7-0.6-0.7c-0.2,0-0.4,0.1-0.8,0.3c-0.3,0.2-0.7,0.5-1.1,0.9c-0.4,0.3-0.8,0.8-1.3,1.3
			c-0.4,0.4-0.8,0.9-1.3,1.4l-1.3,1.4c-0.6,0.7-0.9,1.4-1,2.1c-0.3,1.3-0.4,2.4-0.4,3.4c-0.1,0.8-0.1,1.8-0.1,3.2l-4.9,1.1
			c-0.2-2-0.3-3.4-0.3-4.5c0-2.4,0.3-4.6,0.8-6.8c0.6-2.1,1.4-4.5,2.6-7.1l5.4-1c-1.1,3.1-1.9,5.5-2.3,7.2c2.4-2.7,4.3-4.6,5.8-5.6
			c1.4-1,2.7-1.6,3.8-1.6c0.8,0,1.4,0.3,1.9,0.9c0.5,0.6,0.8,1.3,0.8,2.1c0,1.4-0.6,3.8-1.9,7c-0.9,2.2-1.3,3.6-1.3,4.3
			c0,0.9,0.4,1.3,1.1,1.3c1.1,0,2.8-1.4,5.3-4.3L193.1,259.5L193.1,259.5z"/>
		<path fill="#FFFFFF" d="M216.8,259.5c-2.4,2.3-4.1,3.7-5.1,4.4c-1,0.7-2,1-2.9,1c-2.3,0-3.4-2.1-3.3-6.2c-1.5,2.1-2.8,3.6-4.1,4.7
			c-1.3,1.1-2.5,1.5-3.9,1.5c-1.3,0-2.4-0.6-3.3-1.8s-1.4-2.7-1.4-4.5c0-2.2,0.6-4.3,1.8-6.3s2.8-3.6,4.7-4.9c1.9-1.3,3.6-1.9,5-1.9
			c1.8,0,3.1,0.8,3.9,2.5l4.5-2.5h1.3L212,252c-1,3.3-1.5,5.5-1.5,6.7c0,1.3,0.4,1.9,1.4,1.9c0.6,0,1.2-0.3,1.9-0.9
			c0.7-0.6,1.7-1.6,2.9-2.8L216.8,259.5L216.8,259.5z M200.5,260.7c1.5,0,2.9-1.3,4.1-3.8c1.3-2.5,1.9-4.8,1.9-7
			c0-0.8-0.2-1.5-0.6-1.9c-0.4-0.4-0.9-0.7-1.5-0.7c-1.5,0-2.9,1.3-4.2,3.8c-1.3,2.5-1.9,4.8-1.9,6.9c0,0.8,0.2,1.4,0.6,1.9
			C199.5,260.5,200,260.7,200.5,260.7z"/>
	</g>
	<g enable-background="new    ">
		<path fill="#FFFFFF" d="M271.8,260c-3.3,3.6-6.3,5.3-9,5.3c-1.6,0-2.9-0.8-3.8-2.4c-0.9-1.6-1.3-3.7-1.3-6.4
			c0-2.1,0.4-4.9,1.3-8.5c0.8-3.6,1.9-6.6,3.3-9.1l1.3-2.3c-1.8,1.8-3.2,3.8-4.3,6c-1.1,2.2-2.4,5.2-4,9.2c-1.6,3.9-2.8,6.6-3.5,8
			c-0.8,1.4-1.6,2.6-2.3,3.4c-0.8,0.9-1.4,1.5-1.9,1.8c-0.6,0.3-1.6,0.4-2.9,0.4c-0.6,0-0.8-0.1-0.8-0.4c0,0,0.1-0.5,0.3-1.4
			c0.2-0.9,0.4-2.3,0.6-4.3c0.2-2,0.3-5.4,0.4-10.1c0.1-4.8,0.8-8.8,2.1-12.2c-1.4,1.6-2.8,5.3-4.3,11l-0.6,2.2
			c-1.5,6-3.3,10.1-5.2,12.2c-1.9,2.1-3.9,3.1-5.8,3.1c-1.1,0-2.2-0.4-3.1-1.1s-1.3-1.6-1.3-2.5c0-0.8,0.6-1.6,1.6-2.5
			c1.1-0.9,1.7-1.4,2-1.4s0.6,0.1,0.6,0.3c0.1,0.2,0.3,0.8,0.4,1.8c0.2,1,0.4,1.6,0.8,1.9c0.3,0.3,0.8,0.4,1.3,0.4
			c1.1,0,2.4-1.1,3.8-3.4c1.4-2.3,2.6-5.8,3.8-10.5l0.6-2.7c0.5-2.2,1-3.9,1.5-5.2c0.5-1.3,1.1-2.6,2-3.9c1.2-1.9,1.9-2.9,2.2-2.9
			c0.3-0.1,0.8-0.3,1.5-0.3c0.8-0.1,1.5-0.1,2.3-0.1c0.3,0,0.4,0.2,0.4,0.5c0,0.2-0.1,0.5-0.1,1c-0.3,2.1-0.4,4.1-0.4,6.2l0.1,6
			c0,5.1-0.4,9.3-1.3,12.5c0.8-0.9,1.9-3.4,3.4-7.3c2.1-5.6,4.1-9.7,5.9-12.5c0.8-1.4,1.8-2.6,3.1-3.9c1.2-1.3,2-1.9,2.4-1.9
			c1.6-0.3,2.9-0.4,3.9-0.4c0.4,0,0.6,0.1,0.6,0.3c0,0.3-0.3,1-0.8,2.1c-1.1,2.6-2.2,6.1-3.2,10.5c-1,4.5-1.5,8-1.5,10.6
			c0,2.9,0.9,4.5,2.8,4.5c1.5,0,3.2-1.3,5.3-3.8L271.8,260L271.8,260z"/>
		<path fill="#FFFFFF" d="M295.3,260c-2.4,2.3-4.1,3.7-5.1,4.4s-2,1-2.9,1c-2.3,0-3.4-2.1-3.3-6.2c-1.5,2.1-2.8,3.6-4.1,4.7
			c-1.3,1-2.5,1.5-3.9,1.5c-1.3,0-2.4-0.6-3.3-1.8c-0.9-1.2-1.4-2.7-1.4-4.5c0-2.2,0.6-4.3,1.8-6.3c1.2-2,2.8-3.6,4.7-4.9
			c1.9-1.3,3.6-1.9,5-1.9c1.8,0,3.1,0.8,3.9,2.5l4.5-2.5h1.3l-1.9,6.5c-1,3.3-1.5,5.5-1.5,6.7c0,1.3,0.4,1.9,1.4,1.9
			c0.6,0,1.2-0.3,1.9-0.9s1.7-1.6,2.9-2.8L295.3,260L295.3,260z M279.2,261.1c1.5,0,2.9-1.3,4.1-3.8c1.3-2.5,1.9-4.8,1.9-7
			c0-0.8-0.2-1.5-0.6-1.9c-0.4-0.4-0.9-0.7-1.5-0.7c-1.5,0-2.9,1.3-4.2,3.8c-1.3,2.5-1.9,4.8-1.9,6.9c0,0.8,0.2,1.4,0.6,1.9
			C278,260.9,278.6,261.1,279.2,261.1z"/>
		<path fill="#FFFFFF" d="M311.9,260c-3.7,3.6-6.5,5.5-8.6,5.5c-0.9,0-1.6-0.4-2.3-1.1c-0.6-0.8-0.9-1.7-0.9-2.8
			c0-2.1,1.1-4.9,3.3-8.3c-1.1,0.6-2.3,0.9-3.6,1.2c-0.9,1.8-2.4,3.6-4.5,5.7h-0.5v-2c1.1-1.2,2.2-2.5,3.1-3.8
			c-1.3-0.6-1.9-1.4-1.9-2.5c0-1.1,0.4-2.3,1.1-3.6c0.8-1.3,1.8-1.9,3.2-1.9c1.1,0,1.7,0.6,1.7,1.8c0,0.9-0.3,2.3-1,4
			c2.4-0.3,4.6-2.1,6.4-5.6l2-0.1l-2.1,5.6c-0.9,2.4-1.4,4-1.6,4.9c-0.3,0.9-0.4,1.6-0.4,2.3c0,0.6,0.1,1.1,0.4,1.5s0.7,0.6,1.1,0.6
			c0.6,0,1-0.2,1.5-0.6c0.5-0.4,1.6-1.4,3.3-3L311.9,260L311.9,260z"/>
		<path fill="#FFFFFF" d="M328.4,260c-1.9,1.9-3.6,3.2-5.2,4.1c-1.6,0.9-3.2,1.3-5,1.3c-1.9,0-3.5-0.6-4.8-1.9
			c-1.3-1.3-1.9-2.8-1.9-4.8c0-3.1,1.1-6.1,3.4-8.7s4.8-4,7.5-4c1.3,0,2.4,0.4,3.2,1.1s1.3,1.7,1.3,2.9c0,0.4-0.1,0.7-0.3,0.9
			c-0.1,0.2-0.4,0.4-0.9,0.6l-2.6,1.2c-0.3,0.1-0.6,0.3-0.7,0.3c-0.2,0-0.3-0.1-0.3-0.4c0-0.1,0.1-0.5,0.1-1.1
			c0.1-0.7,0.1-1.1,0.1-1.2c0-0.6-0.1-1.2-0.4-1.6c-0.3-0.4-0.6-0.6-1.1-0.6c-1.1,0-2.1,0.8-2.9,2.4c-0.9,1.6-1.3,3.4-1.3,5.5
			c0,1.8,0.4,3.1,1.3,4.2c0.8,1.1,1.9,1.6,3.4,1.6c1.2,0,2.3-0.3,3.4-1c1.1-0.7,2.3-1.8,3.6-3.1L328.4,260L328.4,260z"/>
		<path fill="#FFFFFF" d="M345,260c-1.9,1.8-3.6,3.2-5,4.1c-1.5,0.9-3.1,1.3-5,1.3c-2,0-3.6-0.6-4.8-1.9c-1.3-1.3-1.8-2.9-1.8-5.1
			c0-3.1,1.1-6,3.3-8.5c2.2-2.5,4.6-3.8,7.2-3.8c1.4,0,2.4,0.3,3.3,1.1c0.8,0.7,1.3,1.6,1.3,2.8c0,3.1-3.3,5.5-9.7,7.5
			c0.6,2.9,2.1,4.3,4.6,4.3c1,0,1.9-0.3,2.8-0.8c0.9-0.5,2.2-1.7,4-3.5v2.6H345z M333.4,255.8c3.8-1.1,5.6-3,5.6-5.9
			c0-1.4-0.5-2.1-1.6-2.1c-1,0-1.9,0.8-2.8,2.2C333.8,251.5,333.4,253.4,333.4,255.8z"/>
		<path fill="#FFFFFF" d="M366.7,260c-3.4,3.6-6.3,5.4-8.8,5.4c-1,0-1.8-0.3-2.4-1c-0.6-0.7-0.9-1.6-0.9-2.8c0-1.6,0.6-4,1.9-7.2
			c0.7-1.8,1-2.9,1-3.3c0-0.4-0.2-0.7-0.6-0.7c-0.2,0-0.4,0.1-0.8,0.3c-0.3,0.2-0.7,0.5-1.1,0.9c-0.4,0.3-0.8,0.8-1.3,1.3
			c-0.4,0.4-0.8,0.9-1.3,1.4l-1.3,1.4c-0.6,0.7-0.9,1.4-1,2.1c-0.3,1.3-0.4,2.4-0.4,3.4c-0.1,0.8-0.1,1.8-0.1,3.2l-4.9,1.1
			c-0.2-2-0.3-3.4-0.3-4.5c0-2.4,0.3-4.6,0.8-6.8s1.4-4.5,2.6-7.1l5.4-1c-1.1,3.1-1.9,5.5-2.3,7.2c2.4-2.7,4.3-4.6,5.8-5.6
			c1.4-1,2.7-1.6,3.8-1.6c0.8,0,1.4,0.3,1.9,0.9c0.5,0.6,0.8,1.3,0.8,2.1c0,1.4-0.6,3.8-1.9,7c-0.9,2.3-1.3,3.6-1.3,4.3
			c0,0.9,0.4,1.3,1.1,1.3c1.1,0,2.8-1.4,5.3-4.3L366.7,260L366.7,260z"/>
		<path fill="#FFFFFF" d="M390.3,260c-2.4,2.3-4.1,3.7-5.1,4.4s-2,1-2.9,1c-2.3,0-3.4-2.1-3.3-6.2c-1.5,2.1-2.8,3.6-4.1,4.7
			c-1.3,1-2.5,1.5-3.9,1.5c-1.3,0-2.4-0.6-3.3-1.8c-0.9-1.2-1.4-2.7-1.4-4.5c0-2.2,0.6-4.3,1.8-6.3c1.2-2,2.8-3.6,4.7-4.9
			c1.9-1.3,3.6-1.9,5-1.9c1.8,0,3.1,0.8,3.9,2.5l4.5-2.5h1.3l-1.9,6.5c-1,3.3-1.5,5.5-1.5,6.7c0,1.3,0.4,1.9,1.4,1.9
			c0.6,0,1.2-0.3,1.9-0.9c0.7-0.6,1.7-1.6,2.9-2.8L390.3,260L390.3,260z M374.1,261.1c1.5,0,2.9-1.3,4.1-3.8c1.3-2.5,1.9-4.8,1.9-7
			c0-0.8-0.2-1.5-0.6-1.9c-0.4-0.4-0.9-0.7-1.5-0.7c-1.5,0-2.9,1.3-4.2,3.8c-1.3,2.5-1.9,4.8-1.9,6.9c0,0.8,0.2,1.4,0.6,1.9
			C373,260.9,373.5,261.1,374.1,261.1z"/>
		<path fill="#FFFFFF" d="M406.8,260c-3.7,3.6-6.5,5.5-8.6,5.5c-0.9,0-1.6-0.4-2.3-1.1c-0.6-0.8-0.9-1.7-0.9-2.8
			c0-2.1,1.1-4.9,3.3-8.3c-1.1,0.6-2.3,0.9-3.6,1.2c-0.9,1.8-2.4,3.6-4.5,5.7h-0.4v-2c1.1-1.2,2.2-2.5,3.1-3.8
			c-1.3-0.6-1.9-1.4-1.9-2.5c0-1.1,0.4-2.3,1.1-3.6c0.8-1.3,1.8-1.9,3.2-1.9c1.1,0,1.7,0.6,1.7,1.8c0,0.9-0.3,2.3-1,4
			c2.4-0.3,4.6-2.1,6.4-5.6l2-0.1l-2.1,5.6c-0.9,2.4-1.4,4-1.6,4.9c-0.3,0.9-0.4,1.6-0.4,2.3c0,0.6,0.1,1.1,0.4,1.5s0.7,0.6,1.1,0.6
			c0.6,0,1-0.2,1.5-0.6c0.5-0.4,1.6-1.4,3.3-3L406.8,260L406.8,260z"/>
		<path fill="#FFFFFF" d="M417.7,260c-3.4,3.6-6,5.5-7.8,5.5c-0.9,0-1.8-0.5-2.4-1.4c-0.6-0.9-1-2.2-1-3.6c0-3.1,1.1-7.5,3.2-13
			l5.6-1.2h0.3l-2.2,6.9c-0.9,2.9-1.4,4.9-1.4,6.1c0,0.5,0.1,0.9,0.3,1.2c0.3,0.3,0.5,0.4,0.8,0.4c0.6,0,1.1-0.3,1.8-0.6
			c0.6-0.4,1.5-1.3,2.8-2.8L417.7,260L417.7,260z M417.3,237.4c0,3.6-1.3,5.3-3.9,5.3c-1.3,0-2.4-0.4-3.3-1.1c0.9-1.3,1.5-2.8,2-4.4
			c1.1,0.7,2.1,1.1,2.8,1.1C415.7,238.3,416.5,237.9,417.3,237.4z"/>
		<path fill="#FFFFFF" d="M441.3,260c-2.4,2.3-4.1,3.7-5.1,4.4c-1,0.7-2,1-2.9,1c-2.3,0-3.4-2.1-3.3-6.2c-1.5,2.1-2.8,3.6-4.1,4.7
			c-1.3,1-2.5,1.5-3.9,1.5c-1.3,0-2.4-0.6-3.3-1.8c-0.9-1.2-1.4-2.7-1.4-4.5c0-2.2,0.6-4.3,1.8-6.3c1.2-2,2.8-3.6,4.7-4.9
			c1.9-1.3,3.6-1.9,5-1.9c1.8,0,3.1,0.8,3.9,2.5l4.5-2.5h1.3l-1.9,6.5c-1,3.3-1.5,5.5-1.5,6.7c0,1.3,0.4,1.9,1.4,1.9
			c0.6,0,1.2-0.3,1.9-0.9c0.7-0.6,1.7-1.6,2.9-2.8L441.3,260L441.3,260z M425.1,261.1c1.5,0,2.9-1.3,4.1-3.8c1.3-2.5,1.9-4.8,1.9-7
			c0-0.8-0.2-1.5-0.6-1.9c-0.4-0.4-0.9-0.7-1.5-0.7c-1.5,0-2.9,1.3-4.2,3.8c-1.3,2.5-1.9,4.8-1.9,6.9c0,0.8,0.2,1.4,0.6,1.9
			C424,260.9,424.5,261.1,425.1,261.1z"/>
	</g>
</g>
</svg>
