<?xml version="1.0" encoding="utf-8"?>
<!-- Generator: Adobe Illustrator 18.1.0, SVG Export Plug-In . SVG Version: 6.00 Build 0)  -->
<svg version="1.1" id="Camada_1" xmlns="http://www.w3.org/2000/svg" xmlns:xlink="http://www.w3.org/1999/xlink" x="0px" y="0px"
	 viewBox="137.4 182.4 242.2 71" enable-background="new 137.4 182.4 242.2 71" xml:space="preserve">
<g display="none">
	<g display="inline">
		<path fill="#F2C18B" d="M642,331.2c0,7.4-4.1,13.3-9.5,13.3H9.5c-5,0-9.5-5.9-9.5-13.3V169c0-7.4,4.1-13.3,9.5-13.3h623.3
			c5,0,9.5,5.9,9.5,13.3v162.2H642z"/>
		<path fill="#F2C18B" d="M635.8,253.1c-4.1,0-8.3,0.6-12.4,1.2c-8.9,2.4-17.5,5.3-26.3,7.7c-12.7,3.3-25.5,5.6-38.5,6.5
			c-20.4,1.5-40.8,1.2-61-1.2c-22.8-2.4-45.3-6.5-67.8-10.1c-13.9-2.1-27.8-3.8-41.7-6.2c-7.7-1.5-15.4-3.3-22.8-4.7
			c-4.1-0.6-8.6-0.6-12.7-0.3c-5,2.1-9.8,5-14.8,7.4c-9.5,4.4-19.5,6.5-29.6,6.8c-9.8,0-19.5-1.5-29-2.1c-9.8-0.6-19.5-0.9-29.3-0.9
			c-19.8,0-40,0.6-59.8-1.5c-19.5-1.8-38.8-5.6-58-8.9c-23.4-3.6-46.8-5-70.1-3.6c-20.7,1.2-41.1,3.3-61.9,2.1V331
			c0,7.4,4.1,13.3,9.5,13.3h623.3c5,0,9.5-5.9,9.5-13.3v-78.7C639.9,252.8,638.1,253.1,635.8,253.1z"/>
		<polygon fill="#E0B17E" points="247.1,191.8 204.5,204.9 204.5,211.7 237.7,211.7 266.1,211.7 296.3,211.7 322.3,201.9 291,191.8 
					"/>
		<g>
			<g>
				<g>
					<defs>
						<path id="SVGID_1_" d="M642,331.2c0,7.4-4.1,13.3-9.5,13.3H9.5c-5,0-9.5-5.9-9.5-13.3V169c0-7.4,4.1-13.3,9.5-13.3h623.3
							c5,0,9.5,5.9,9.5,13.3v162.2H642z"/>
					</defs>
					<clipPath id="SVGID_2_">
						<use xlink:href="#SVGID_1_"  overflow="visible"/>
					</clipPath>
					<polygon clip-path="url(#SVGID_2_)" fill="#E0B17E" points="-20.1,173.2 40,180 78.7,180 129.6,180 181.7,180 240.9,173.2 
						300.4,173.2 349,176.4 395.1,192.7 447.5,192.7 500.5,187.7 605.6,183 641.1,177 673.1,183 641.1,188.6 600.8,192.7 
						545.8,192.7 503.5,192.7 456.1,199.5 405.8,199.5 375.9,193.6 333.3,186.2 292.4,180 252.8,180 212.2,183 196.5,186.2 
						145.6,194.5 102.7,186.2 67.2,186.2 31.4,186.2 0.6,180 					"/>
				</g>
			</g>
			<g>
				<g>
					<defs>
						<path id="SVGID_3_" d="M642,331.2c0,7.4-4.1,13.3-9.5,13.3H9.5c-5,0-9.5-5.9-9.5-13.3V169c0-7.4,4.1-13.3,9.5-13.3h623.3
							c5,0,9.5,5.9,9.5,13.3v162.2H642z"/>
					</defs>
					<clipPath id="SVGID_4_">
						<use xlink:href="#SVGID_3_"  overflow="visible"/>
					</clipPath>
					<polygon clip-path="url(#SVGID_4_)" fill="#E0B17E" points="-39.1,195.7 22.5,206.9 87,213.4 126.4,214.3 180.3,235.1 
						248.9,236.8 304.9,231.8 349.6,228.2 408.2,216.1 446,217 511.2,220.5 557.6,227.1 629.9,239.5 696.5,247.2 740.3,248.4 
						729.6,241.6 685.2,235.3 624.8,220.3 575.1,218.2 526,215.8 490.2,214 427.4,210.8 395.1,206 383.6,212.6 320.8,221.4 
						270.8,220.3 232.1,224.7 204.8,224.1 166.6,222 145.6,209 119.3,206.3 95.9,205.8 53.6,198.1 26.9,197.5 -8.3,196.6 					"/>
				</g>
			</g>
			<g>
				<g>
					<defs>
						<path id="SVGID_5_" d="M642,331.2c0,7.4-4.1,13.3-9.5,13.3H9.5c-5,0-9.5-5.9-9.5-13.3V169c0-7.4,4.1-13.3,9.5-13.3h623.3
							c5,0,9.5,5.9,9.5,13.3v162.2H642z"/>
					</defs>
					<clipPath id="SVGID_6_">
						<use xlink:href="#SVGID_5_"  overflow="visible"/>
					</clipPath>
					<polygon clip-path="url(#SVGID_6_)" fill="#E0B17E" points="-35.5,253.4 -6.8,245.1 44.7,246.6 104.5,254.3 141.2,255.5 
						194.2,263.2 278.5,259.3 436.3,270 479.8,271.2 522.4,266.1 592.9,274.4 640.2,269.4 648.2,272.3 678.1,282.7 713.6,283.9 
						742,278.6 796.5,280 830.5,287.1 867.2,288 944.8,278 858.9,278.6 818.4,273.5 736.7,266.1 698.5,278.3 615.4,262.6 
						593.2,271.2 543.7,260.5 493.1,259 473,263.8 436.3,266.7 398.7,256.4 362,255.5 301.3,253.7 262.2,252.5 224.4,251.6 
						193,256.1 163.1,249.9 141.2,249.3 118.1,248.7 80.2,247.5 46.2,240.4 5.3,239.2 -16.3,238.6 					"/>
				</g>
			</g>
			<g>
				<g>
					<defs>
						<path id="SVGID_7_" d="M642,331.2c0,7.4-4.1,13.3-9.5,13.3H9.5c-5,0-9.5-5.9-9.5-13.3V169c0-7.4,4.1-13.3,9.5-13.3h623.3
							c5,0,9.5,5.9,9.5,13.3v162.2H642z"/>
					</defs>
					<clipPath id="SVGID_8_">
						<use xlink:href="#SVGID_7_"  overflow="visible"/>
					</clipPath>
					<polygon clip-path="url(#SVGID_8_)" fill="#E0B17E" points="-292.7,253.4 -264.6,264.4 -212.8,266.7 -153,263.8 -116.3,265.5 
						-63,262.3 21,272.6 179.1,274.4 222.3,276.8 264.9,285.1 335.6,282.4 382.4,291 390.7,288.9 420.9,280.6 456.1,282.4 
						484.5,290.1 539,293.1 573,288.6 609.7,290.4 686.7,306.7 601.1,299.3 560.3,301.1 478.6,302.2 441,287.1 357.3,296 
						335.4,285.7 285.9,292.5 235,289.8 215.5,283.6 178.8,277.7 140.9,285.1 103.9,283 43.5,280 4.4,278 -33.4,275.9 -64.5,269.1 
						-94.7,272.9 -116.3,271.8 -139.4,270.6 -177.6,268.8 -211.6,273.2 -252.5,271.2 -274.4,270 					"/>
				</g>
			</g>
			<g>
				<g>
					<defs>
						<path id="SVGID_9_" d="M642,331.2c0,7.4-4.1,13.3-9.5,13.3H9.5c-5,0-9.5-5.9-9.5-13.3V169c0-7.4,4.1-13.3,9.5-13.3h623.3
							c5,0,9.5,5.9,9.5,13.3v162.2H642z"/>
					</defs>
					<clipPath id="SVGID_10_">
						<use xlink:href="#SVGID_9_"  overflow="visible"/>
					</clipPath>
					<polygon clip-path="url(#SVGID_10_)" fill="#E0B17E" points="-61.6,318.2 -33.2,309.6 18.6,311.4 78.4,319.4 115.1,320.3 
						168.1,328.3 252.5,324.4 410.2,335.4 453.4,336.9 496.4,331.8 566.8,340.1 613.9,335.4 622.2,338.4 652.1,349 687.3,349.9 
						716,344.6 770.2,346.3 804.2,353.4 840.9,354.6 918.4,344.6 832.9,345.2 792.1,339.8 710.7,332.1 672.5,344.3 589,328.6 
						566.8,337.2 517.7,326.5 466.8,324.7 446.9,329.5 410.2,332.4 372.3,322.1 335.6,320.9 275.3,319.1 236.2,317.9 198,316.7 
						166.6,321.2 137,315 115.1,314.1 92.1,313.5 53.9,312.3 20.1,305.2 -20.7,304 -42.3,303.4 					"/>
				</g>
			</g>
		</g>
		<path fill="#F8D29B" d="M632.8,155.7H9.5c-5.3,0-9.5,5.9-9.5,13.3v3.8c0-7.4,4.1-13.3,9.5-13.3h623.3c5,0,9.5,5.9,9.5,13.3V169
			C642,161.6,637.8,155.7,632.8,155.7z"/>
		<path fill="#D8A669" d="M632.8,338.6H9.5c-5,0-9.5-5.9-9.5-13.3v5.6c0,7.4,4.1,13.3,9.5,13.3h623.3c5,0,9.5-5.9,9.5-13.3v-5.6
			C642,332.7,637.8,338.6,632.8,338.6z"/>
	</g>
	<g display="inline">
		<circle fill="#1D2225" cx="22.2" cy="182.7" r="9.8"/>
		<g>
			
				<linearGradient id="SVGID_11_" gradientUnits="userSpaceOnUse" x1="136.8087" y1="199.8814" x2="142.6375" y2="199.8814" gradientTransform="matrix(2.5028 1.5803 -1.5803 2.5028 -11.7502 -538.4335)">
				<stop  offset="0" style="stop-color:#E4E2DF"/>
				<stop  offset="0" style="stop-color:#DFDAD7"/>
				<stop  offset="6.584089e-002" style="stop-color:#CEC9C8"/>
				<stop  offset="0.1916" style="stop-color:#A49FA3"/>
				<stop  offset="0.264" style="stop-color:#8B878D"/>
				<stop  offset="0.5225" style="stop-color:#F3F4F3"/>
				<stop  offset="0.589" style="stop-color:#E2E1E2"/>
				<stop  offset="0.7167" style="stop-color:#B8B4B7"/>
				<stop  offset="0.8764" style="stop-color:#807C81"/>
				<stop  offset="1" style="stop-color:#D1D3D4"/>
				<stop  offset="1" style="stop-color:#A7A9AC"/>
			</linearGradient>
			<circle fill="url(#SVGID_11_)" cx="22.2" cy="182.7" r="8.6"/>
			<polygon fill="#1D2225" points="30.2,179.4 13.6,183.3 13.9,185.3 30.5,181.5 			"/>
		</g>
	</g>
	<g display="inline">
		<circle fill="#1D2225" cx="621" cy="184.1" r="9.8"/>
		<g>
			
				<linearGradient id="SVGID_12_" gradientUnits="userSpaceOnUse" x1="308.2038" y1="92.2748" x2="314.0326" y2="92.2748" gradientTransform="matrix(2.5028 1.5803 -1.5803 2.5028 -11.7502 -538.4335)">
				<stop  offset="0" style="stop-color:#E4E2DF"/>
				<stop  offset="0" style="stop-color:#DFDAD7"/>
				<stop  offset="6.584089e-002" style="stop-color:#CEC9C8"/>
				<stop  offset="0.1916" style="stop-color:#A49FA3"/>
				<stop  offset="0.264" style="stop-color:#8B878D"/>
				<stop  offset="0.5225" style="stop-color:#F3F4F3"/>
				<stop  offset="0.589" style="stop-color:#E2E1E2"/>
				<stop  offset="0.7167" style="stop-color:#B8B4B7"/>
				<stop  offset="0.8764" style="stop-color:#807C81"/>
				<stop  offset="1" style="stop-color:#D1D3D4"/>
				<stop  offset="1" style="stop-color:#A7A9AC"/>
			</linearGradient>
			<circle fill="url(#SVGID_12_)" cx="621" cy="184.1" r="8.6"/>
			<polygon fill="#1D2225" points="629.3,180.9 612.4,184.7 613,186.8 629.6,183.3 			"/>
		</g>
	</g>
	<g display="inline">
		<circle fill="#1D2225" cx="23.7" cy="323" r="9.8"/>
		<g>
			
				<linearGradient id="SVGID_13_" gradientUnits="userSpaceOnUse" x1="162.6014" y1="239.6894" x2="168.4301" y2="239.6894" gradientTransform="matrix(2.5028 1.5803 -1.5803 2.5028 -11.7502 -538.4335)">
				<stop  offset="0" style="stop-color:#E4E2DF"/>
				<stop  offset="0" style="stop-color:#DFDAD7"/>
				<stop  offset="6.584089e-002" style="stop-color:#CEC9C8"/>
				<stop  offset="0.1916" style="stop-color:#A49FA3"/>
				<stop  offset="0.264" style="stop-color:#8B878D"/>
				<stop  offset="0.5225" style="stop-color:#F3F4F3"/>
				<stop  offset="0.589" style="stop-color:#E2E1E2"/>
				<stop  offset="0.7167" style="stop-color:#B8B4B7"/>
				<stop  offset="0.8764" style="stop-color:#807C81"/>
				<stop  offset="1" style="stop-color:#D1D3D4"/>
				<stop  offset="1" style="stop-color:#A7A9AC"/>
			</linearGradient>
			<circle fill="url(#SVGID_13_)" cx="23.7" cy="323" r="8.6"/>
			<polygon fill="#1D2225" points="32,319.7 15.1,323.8 15.4,325.6 32.3,322.1 			"/>
		</g>
	</g>
	<g display="inline">
		<circle fill="#1D2225" cx="622.8" cy="323" r="9.8"/>
		<g>
			
				<linearGradient id="SVGID_14_" gradientUnits="userSpaceOnUse" x1="333.7076" y1="131.6288" x2="339.5363" y2="131.6288" gradientTransform="matrix(2.5028 1.5803 -1.5803 2.5028 -11.7502 -538.4335)">
				<stop  offset="0" style="stop-color:#E4E2DF"/>
				<stop  offset="0" style="stop-color:#DFDAD7"/>
				<stop  offset="6.584089e-002" style="stop-color:#CEC9C8"/>
				<stop  offset="0.1916" style="stop-color:#A49FA3"/>
				<stop  offset="0.264" style="stop-color:#8B878D"/>
				<stop  offset="0.5225" style="stop-color:#F3F4F3"/>
				<stop  offset="0.589" style="stop-color:#E2E1E2"/>
				<stop  offset="0.7167" style="stop-color:#B8B4B7"/>
				<stop  offset="0.8764" style="stop-color:#807C81"/>
				<stop  offset="1" style="stop-color:#D1D3D4"/>
				<stop  offset="1" style="stop-color:#A7A9AC"/>
			</linearGradient>
			<circle fill="url(#SVGID_14_)" cx="622.8" cy="323" r="8.6"/>
			<polygon fill="#1D2225" points="630.7,319.7 614.2,323.8 614.5,325.6 631,322.1 			"/>
		</g>
	</g>
</g>
<rect x="137.3" y="191.1" display="none" fill="none" width="382.7" height="123.1"/>
<text transform="matrix(1 0 0 1 137.358 236.1692)" fill="#E72F70" font-family="'ScriptMTBold'" font-size="64.5785">Mina  na</text>
<text transform="matrix(1 0 0 1 195.3703 313.7167)" fill="#E72F70" font-family="'ScriptMTBold'" font-size="64.5785">Marcenaria</text>
<g>
	<g>
		<g>
			<g>
				<path fill="#898888" d="M115.4,188.8c-2.7,0-13,0-14.5,0c-1.2,0-2.1,3.3-8.3,3.3c-4.4,0-6.8-2.4-6.8-2.4v11.5
					c0,0,2.4-1.2,6.8-1.2c2.7,0,4.4,0.6,5.3,1.5v9.5c0,1.5,1.2,2.7,2.7,2.7h10.7c1.5,0,2.7-1.2,2.7-2.7c0,0,0-10.7,0-11
					c0.9-1.2,2.4-2.4,5.9-2.4c7.7,0,12.7,7.7,12.7,10.1h1.8C134.4,192,118.1,188.8,115.4,188.8z"/>
				<rect x="101.2" y="212.1" fill="#676767" width="9.2" height="41.1"/>
				<path fill="#E72F70" d="M114.5,322c0,1.5-1.2,2.7-2.7,2.7H100c-1.5,0-2.7-1.2-2.7-2.7l0.9-68.1c0-1.5,1.2-2.7,2.7-2.7h10.4
					c1.5,0,2.7,1.2,2.7,2.7L114.5,322z"/>
				<path fill="#898888" d="M92.6,200c2.7,0,4.4,0.6,5.3,1.5v9.5c0,1.5,1.2,2.7,2.7,2.7h10.7c1.5,0,2.7-1.2,2.7-2.7c0,0,0-10.7,0-11
					c0.9-1.2,2.4-2.4,5.9-2.4c7.7,0,12.7,7.7,12.7,10.1h0.9c-0.3-3.3-2.1-12.7-18.4-12.7c0,0-4.1,4.7-11.5,4.7s-8.6-3.6-17.8-3.6v5
					C85.8,201.2,87.9,200,92.6,200z"/>
				<path fill="#898888" d="M87.9,200.9c0,1.5-1.2,2.7-2.7,2.7h-7.1c-1.5,0-2.7-1.2-2.7-2.7v-9.8c0-1.5,1.2-2.7,2.7-2.7h7.1
					c1.5,0,2.7,1.2,2.7,2.7V200.9z"/>
				<path fill="#898888" d="M75.5,195.6v5.3c0,1.5,1.2,2.7,2.7,2.7h7.1c1.5,0,2.7-1.2,2.7-2.7V195C82.3,196.5,78.1,196.5,75.5,195.6
					z"/>
				<rect x="102.4" y="250.9" fill="#E72F70" width="6.5" height="73.4"/>
			</g>
		</g>
	</g>
	<g>
		<g>
			<g>
				<g>
					<path fill="#898888" d="M531.9,303c-3.6,6.2-3.6,8.6-3.6,8.6l11.2-3.8l12.7,1.2c0,0-1.2-3.8-4.4-6.8c-3.3-2.7-3-4.7-3-9.2
						v-90.6c0-3.6,0.9-8.3,2.4-10.7h-7.4h-7.4c1.5,2.7,2.4,7.1,2.4,10.7v90.9C534.5,297.4,534.3,299.2,531.9,303z"/>
					<path fill="#898888" d="M537.2,203.9c0-1.2,0.9-2.4,2.4-2.4l0,0c1.2,0,2.4,0.9,2.4,2.4v84.4c0,1.2-0.9,2.4-2.4,2.4l0,0
						c-1.2,0-2.4-0.9-2.4-2.4V203.9z"/>
					<path fill="#898888" d="M537.2,326.1l-3-12.1c0,0,0.6-2.1,6.2-2.7c5.6-0.9,6.8,1.2,6.8,1.2l3,11c0,0,3.6-6.8,2.1-13.3
						c-1.5-6.8-6.8-9.2-14.2-8.3c-7.4,1.2-10.7,8-9.8,12.4C529.5,319,532.5,322.3,537.2,326.1z"/>
					<path fill="#898888" d="M539.6,195c5.6,0,10.1-4.4,10.1-10.1s-4.4-10.1-10.1-10.1c-5.6,0-10.1,4.4-10.1,10.1
						S534.3,195,539.6,195z M536.3,179.3h6.8l3.3,5.9l-3.3,5.9h-6.8l-3.3-5.9L536.3,179.3z"/>
				</g>
			</g>
		</g>
		<g>
			<g>
				<circle fill="#EBCB87" cx="539.6" cy="180.8" r="1.5"/>
			</g>
		</g>
	</g>
</g>
</svg>
